Coordinates
version=1
nRows=30
nColumns=33
inDegrees=yes

Units are S.I. units (second, meters, Newtons, ...)
Angles are in degrees.

endheader
time	ground_thorax_rot_x	ground_thorax_rot_y	ground_thorax_rot_z	ground_thorax_tx	ground_thorax_ty	ground_thorax_tz	clav_prot_r	clav_elev_r	scapula_abduction_r	scapula_elevation_r	scapula_upward_rot_r	scapula_winging_r	shoulder_elv_r	plane_of_elev_r	axial_rot_r	elbow_flexion_r	pro_sup_r	wrist_flex_r	wrist_dev_r	clav_prot_l	clav_elev_l	scapula_abduction_l	scapula_elevation_l	scapula_upward_rot_l	scapula_winging_l	shoulder_elv_l	plane_of_elev_l	axial_rot_l	elbow_flexion_l	pro_sup_l	wrist_flex_l	wrist_dev_l	
7.6400	27.380483	33.170121	43.014476	-1.137897	777.897120	-40.728236	13.075876	35.355145	26.384218	45.000000	-45.000000	-1164.722365	-4067.660953	159.720628	24.534594	1441.029539	168.011181	12.046770	13.472756	-11.457164	-45.000000	-35.407247	45.000000	-45.000000	-3497.739833	-451.957642	137.312059	-140.586283	351.527819	49.852839	10.118950	-16.059752	
7.6500	27.413321	33.023168	42.784443	-4.246930	778.653437	-40.501791	13.046825	35.334199	26.298878	45.000000	-45.000000	-1164.853644	-4067.599477	159.730136	24.656912	1441.001967	168.171059	12.073847	13.530704	-11.364800	-45.000000	-35.470882	45.000000	-45.000000	-3497.602368	-451.897157	137.314102	-140.585787	351.462763	49.651627	10.216271	-16.099012	
7.6600	27.449041	32.870279	42.553389	-7.341341	779.498875	-40.288328	13.020355	35.312682	26.218713	45.000000	-45.000000	-1164.989119	-4067.541891	159.738137	24.770909	1440.973917	168.316640	12.101080	13.591893	-11.268077	-45.000000	-35.540539	45.000000	-45.000000	-3497.465674	-451.833579	137.312094	-140.557342	351.392436	49.429204	10.320168	-16.137177	
7.6700	27.489331	32.710288	42.318798	-10.417807	780.437987	-40.089461	12.994779	35.292073	26.143890	45.000000	-45.000000	-1165.128644	-4067.486080	159.741605	24.871019	1440.945021	168.445319	12.129024	13.655732	-11.169025	-45.000000	-35.614404	45.000000	-45.000000	-3497.331523	-451.766154	137.305277	-140.501608	351.316788	49.179678	10.431883	-16.173014	
7.6800	27.533587	32.545385	42.083711	-13.473405	781.473747	-39.906370	12.971179	35.270145	26.074060	45.000000	-45.000000	-1165.277032	-4067.432565	159.739022	24.958422	1440.913505	168.557003	12.159529	13.721767	-11.065807	-45.000000	-35.692145	45.000000	-45.000000	-3497.196766	-451.695179	137.292990	-140.416222	351.236854	48.897265	10.552849	-16.206656	
7.6900	27.581616	32.374933	41.846909	-16.505507	782.607641	-39.739966	12.950691	35.245405	26.008994	45.000000	-45.000000	-1165.430065	-4067.379374	159.731665	25.030498	1440.879443	168.649917	12.193011	13.789187	-10.959130	-45.000000	-35.774275	45.000000	-45.000000	-3497.062993	-451.619106	137.275027	-140.302581	351.151543	48.577570	10.683963	-16.236962	
7.7000	27.631390	32.199616	41.611711	-19.511085	783.839823	-39.591100	12.935572	35.213916	25.949630	45.000000	-45.000000	-1165.585140	-4067.325991	159.723642	25.091737	1440.842464	168.723836	12.230640	13.856673	-10.847520	-45.000000	-35.863209	45.000000	-45.000000	-3496.928921	-451.538145	137.252586	-140.162471	351.060474	48.217675	10.825739	-16.263868	
7.7100	27.681968	32.018524	41.376098	-22.486731	785.169753	-39.460791	12.928991	35.172009	25.895404	45.000000	-45.000000	-1165.735202	-4067.270653	159.717741	25.144474	1440.803780	168.777386	12.272442	13.922838	-10.730991	-45.000000	-35.962388	45.000000	-45.000000	-3496.797148	-451.450905	137.225548	-139.999391	350.961320	47.816807	10.978413	-16.286596	
7.7200	27.734300	31.832293	41.140057	-25.428196	786.596503	-39.350311	12.925613	35.125578	25.847508	45.000000	-45.000000	-1165.882197	-4067.214659	159.713903	25.188619	1440.763129	168.813017	12.320904	13.986642	-10.610586	-45.000000	-36.069294	45.000000	-45.000000	-3496.668032	-451.359248	137.195079	-139.813652	350.857827	47.376482	11.139482	-16.305512	
7.7300	27.788684	31.640935	40.902377	-28.330879	788.119292	-39.261205	12.927240	35.075350	25.805577	45.000000	-45.000000	-1166.025566	-4067.157924	159.710449	25.224575	1440.720446	168.833229	12.377892	14.046800	-10.486248	-45.000000	-36.184382	45.000000	-45.000000	-3496.542600	-451.262971	137.160791	-139.608708	350.749638	46.899658	11.308096	-16.321099	
7.7400	27.846341	31.445527	40.665195	-31.189416	789.737257	-39.195078	12.929784	35.025903	25.771375	45.000000	-45.000000	-1166.168708	-4067.101624	159.706326	25.250341	1440.674800	168.843212	12.446659	14.101845	-10.359112	-45.000000	-36.303914	45.000000	-45.000000	-3496.418891	-451.165091	137.124788	-139.388056	350.641226	46.389967	11.482025	-16.335553	
7.7500	27.907532	31.246811	40.427851	-33.998228	791.449347	-39.153285	12.935423	34.976911	25.744543	45.000000	-45.000000	-1166.314634	-4067.045496	159.697372	25.265221	1440.626136	168.847429	12.529192	14.150511	-10.229239	-45.000000	-36.428078	45.000000	-45.000000	-3496.296808	-451.065725	137.085602	-139.153677	350.533117	45.851389	11.660339	-16.350621	
7.7600	27.973047	31.046338	40.192350	-36.751687	793.253753	-39.136502	12.940061	34.932670	25.726753	45.000000	-45.000000	-1166.466219	-4066.990881	159.682872	25.265976	1440.574770	168.851422	12.627427	14.191510	-10.098263	-45.000000	-36.553138	45.000000	-45.000000	-3496.174535	-450.966696	137.045288	-138.910503	350.428974	45.288278	11.840588	-16.368322	
7.7700	28.042208	30.844774	39.958113	-39.444868	795.147681	-39.144544	12.948094	34.890111	25.717919	45.000000	-45.000000	-1166.622873	-4066.936720	159.662659	25.254473	1440.520290	168.857859	12.741528	14.223534	-9.967277	-45.000000	-36.680487	45.000000	-45.000000	-3496.052904	-450.867054	137.003010	-138.663645	350.328635	44.704579	12.021550	-16.389908	
7.7800	28.113500	30.642699	39.725700	-42.074160	797.126984	-39.176276	12.961027	34.846467	25.718989	45.000000	-45.000000	-1166.778702	-4066.882878	159.642387	25.231113	1440.463653	168.867104	12.869933	14.245724	-9.837834	-45.000000	-36.812105	45.000000	-45.000000	-3495.932435	-450.766655	136.961291	-138.419243	350.231925	44.103989	12.201167	-16.415761	
7.7900	28.188022	30.440593	39.492105	-44.638001	799.186028	-39.229807	12.977961	34.805276	25.729378	45.000000	-45.000000	-1166.935834	-4066.828890	159.619907	25.195243	1440.405508	168.877532	13.011238	14.258396	-9.714164	-45.000000	-36.946760	45.000000	-45.000000	-3495.816439	-450.664881	136.919117	-138.175431	350.140315	43.491197	12.376393	-16.445754	
7.8000	28.265544	30.238290	39.255829	-47.137438	801.317637	-39.302733	12.997350	34.767250	25.747436	45.000000	-45.000000	-1167.092097	-4066.775175	159.595262	25.144920	1440.347341	168.885473	13.162844	14.262789	-9.595574	-45.000000	-37.084755	45.000000	-45.000000	-3495.705142	-450.561136	136.876482	-137.934228	350.053545	42.871108	12.545349	-16.479311	
7.8100	28.346313	30.036616	39.016577	-49.576103	803.513300	-39.392537	13.016671	34.731866	25.771098	45.000000	-45.000000	-1167.249096	-4066.720215	159.567138	25.082977	1440.289712	168.886470	13.322827	14.260273	-9.479324	-45.000000	-37.225331	45.000000	-45.000000	-3495.598197	-450.456142	136.831514	-137.693944	349.973560	42.248577	12.706533	-16.516657	
7.8200	28.429165	29.833846	38.776030	-51.959661	805.763539	-39.496855	13.034483	34.695885	25.798321	45.000000	-45.000000	-1167.403759	-4066.663256	159.537108	25.009847	1440.231892	168.873650	13.488941	14.252661	-9.361102	-45.000000	-37.369000	45.000000	-45.000000	-3495.492800	-450.349940	136.784830	-137.455963	349.899968	41.627953	12.859523	-16.557097	
7.8300	28.513841	29.629872	38.535924	-54.294674	808.058486	-39.613702	13.047111	34.660033	25.828349	45.000000	-45.000000	-1167.557120	-4066.603456	159.505089	24.928099	1440.176625	168.839808	13.658275	14.241700	-9.238019	-45.000000	-37.513912	45.000000	-45.000000	-3495.387799	-450.243109	136.735407	-137.215197	349.834159	41.014069	13.003169	-16.599685	
7.8400	28.598324	29.422514	38.298805	-56.587262	810.388415	-39.741524	13.054962	34.622339	25.859718	45.000000	-45.000000	-1167.708744	-4066.541990	159.471554	24.839245	1440.121998	168.775811	13.827931	14.229532	-9.109265	-45.000000	-37.660221	45.000000	-45.000000	-3495.280833	-450.135376	136.684157	-136.974545	349.774753	40.411370	13.137821	-16.643222	
7.8500	28.681558	29.212918	38.066759	-58.841974	812.744352	-39.879218	13.057085	34.582653	25.892531	45.000000	-45.000000	-1167.859860	-4066.479129	159.438376	24.746578	1440.069790	168.672245	13.993220	14.217705	-8.973610	-45.000000	-37.806434	45.000000	-45.000000	-3495.171542	-450.026932	136.630346	-136.730914	349.722997	39.824314	13.263168	-16.687115	
7.8600	28.762568	28.999941	37.840433	-61.061155	815.118386	-40.026048	13.055519	34.542268	25.927067	45.000000	-45.000000	-1168.011753	-4066.417519	159.406374	24.649879	1440.017753	168.518948	14.149650	14.208204	-8.835047	-45.000000	-37.951935	45.000000	-45.000000	-3495.060811	-449.916979	136.575563	-136.485579	349.676780	39.257906	13.379550	-16.730371	
7.8700	28.841081	28.785366	37.619720	-63.244817	817.503667	-40.181556	13.050811	34.502600	25.963108	45.000000	-45.000000	-1168.164856	-4066.357878	159.375526	24.548548	1439.969496	168.307225	14.290553	14.202654	-8.693861	-45.000000	-38.095469	45.000000	-45.000000	-3494.950084	-449.805861	136.518598	-136.235186	349.635967	38.717145	13.487245	-16.772975	
7.8800	28.917561	28.568899	37.402737	-65.391022	819.894150	-40.345475	13.044362	34.466973	26.001539	45.000000	-45.000000	-1168.322692	-4066.304301	159.343352	24.442048	1439.923263	168.032444	14.412219	14.202874	-8.555954	-45.000000	-38.236749	45.000000	-45.000000	-3494.840807	-449.694042	136.460871	-135.982430	349.598711	38.207657	13.586863	-16.815516	
7.8900	28.990032	28.351116	37.189488	-67.496583	822.284264	-40.517697	13.036670	34.431380	26.039918	45.000000	-45.000000	-1168.479760	-4066.255159	159.310893	24.331575	1439.880352	167.693893	14.510444	14.208974	-8.415503	-45.000000	-38.377148	45.000000	-45.000000	-3494.732332	-449.582058	136.400616	-135.727451	349.564540	37.733754	13.679267	-16.858445	
7.9000	29.057984	28.133030	36.979707	-69.557729	824.668545	-40.698282	13.027422	34.395011	26.077983	45.000000	-45.000000	-1168.635009	-4066.210916	159.279369	24.220322	1439.838330	167.296190	14.585427	14.219967	-8.272424	-45.000000	-38.516395	45.000000	-45.000000	-3494.623795	-449.469619	136.338531	-135.474540	349.532439	37.299666	13.765084	-16.902182	
7.9100	29.120977	27.914145	36.773772	-71.570438	827.041086	-40.887473	13.017247	34.358380	26.117046	45.000000	-45.000000	-1168.787170	-4066.171499	159.248454	24.107511	1439.797138	166.849376	14.638936	14.234696	-8.128458	-45.000000	-38.653338	45.000000	-45.000000	-3494.515249	-449.357217	136.274964	-135.222799	349.502805	36.908027	13.844551	-16.947485	
7.9200	29.179921	27.696128	36.571363	-73.530901	829.395418	-41.085719	13.003947	34.323987	26.159594	45.000000	-45.000000	-1168.940181	-4066.138739	159.217725	23.997189	1439.754971	166.368965	14.676394	14.251140	-7.984642	-45.000000	-38.786015	45.000000	-45.000000	-3494.405346	-449.245103	136.209771	-134.975479	349.475944	36.561460	13.918231	-16.995438	
7.9300	29.236794	27.474282	36.371455	-75.435496	831.724081	-41.293611	12.986968	34.302243	26.219430	45.000000	-45.000000	-1169.099083	-4066.121495	159.185089	23.887997	1439.717733	165.875874	14.703029	14.267408	-7.854451	-45.000000	-38.910639	45.000000	-45.000000	-3494.295754	-449.132262	136.146086	-134.730532	349.450680	36.261383	13.987332	-17.048283	
